<?xml version="1.0" encoding="UTF-8"?>
<svg id="Ebene_2" data-name="Ebene 2" xmlns="http://www.w3.org/2000/svg" viewBox="0 0 428.07 59.32">
  <defs>
    <style>
      .cls-1, .cls-2, .cls-3 {
        stroke-width: 0px;
      }

      .cls-2 {
        fill: #ff4653;
      }

      .cls-3 {
        fill: #00c3ad;
      }
    </style>
  </defs>
  <g id="OBJECTS">
    <g>
      <path class="cls-2" d="m35.41,1.54l-.32,13.62-9.58.39-1.16,29.82-13.56.71-1.22-29.82-9.58.51L.39,1.61l35.03-.06Z"/>
      <path class="cls-1" d="m42.49,34.1c.11,6.71,4.4,9.48,9.37,9.48,3.55,0,5.7-.62,7.56-1.41l.85,3.55c-1.75.79-4.74,1.69-9.08,1.69-8.41,0-13.43-5.53-13.43-13.76s4.85-14.72,12.81-14.72c8.91,0,11.28,7.84,11.28,12.86,0,1.02-.11,1.81-.17,2.31h-19.18Zm14.55-3.55c.06-3.16-1.3-8.07-6.88-8.07-5.02,0-7.22,4.63-7.62,8.07h14.5Z"/>
      <path class="cls-1" d="m67.98,6.8h4.96v40.05h-4.96V6.8Z"/>
      <path class="cls-1" d="m84.06,34.1c.11,6.71,4.4,9.48,9.37,9.48,3.55,0,5.7-.62,7.56-1.41l.85,3.55c-1.75.79-4.74,1.69-9.08,1.69-8.41,0-13.43-5.53-13.43-13.76s4.85-14.72,12.81-14.72c8.91,0,11.28,7.84,11.28,12.86,0,1.02-.11,1.81-.17,2.31h-19.18Zm14.55-3.55c.06-3.16-1.3-8.07-6.88-8.07-5.02,0-7.22,4.63-7.62,8.07h14.5Z"/>
      <path class="cls-1" d="m133.08,19.55c-.11,1.97-.23,4.17-.23,7.5v15.85c0,6.26-1.24,10.1-3.89,12.47-2.65,2.48-6.49,3.27-9.93,3.27s-6.88-.79-9.08-2.26l1.24-3.78c1.81,1.13,4.63,2.14,8.01,2.14,5.08,0,8.8-2.65,8.8-9.53v-3.05h-.11c-1.52,2.54-4.46,4.57-8.69,4.57-6.77,0-11.62-5.75-11.62-13.31,0-9.25,6.04-14.5,12.3-14.5,4.74,0,7.33,2.48,8.52,4.74h.11l.23-4.12h4.34Zm-5.13,10.77c0-.85-.06-1.58-.28-2.26-.9-2.88-3.33-5.25-6.94-5.25-4.74,0-8.12,4-8.12,10.32,0,5.36,2.71,9.82,8.07,9.82,3.05,0,5.81-1.92,6.88-5.08.28-.85.39-1.8.39-2.65v-4.91Z"/>
      <path class="cls-1" d="m140.75,28.07c0-3.22-.06-5.98-.23-8.52h4.34l.17,5.36h.23c1.24-3.67,4.23-5.98,7.56-5.98.56,0,.96.06,1.41.17v4.68c-.51-.11-1.02-.17-1.69-.17-3.5,0-5.98,2.65-6.66,6.38-.11.68-.23,1.47-.23,2.31v14.55h-4.91v-18.79Z"/>
      <path class="cls-1" d="m174.03,46.85l-.39-3.44h-.17c-1.52,2.14-4.46,4.06-8.35,4.06-5.53,0-8.35-3.89-8.35-7.84,0-6.6,5.87-10.21,16.42-10.15v-.56c0-2.26-.62-6.32-6.21-6.32-2.54,0-5.19.79-7.11,2.03l-1.13-3.27c2.26-1.47,5.53-2.43,8.97-2.43,8.35,0,10.38,5.7,10.38,11.17v10.21c0,2.37.11,4.68.45,6.54h-4.51Zm-.73-13.93c-5.42-.11-11.56.85-11.56,6.15,0,3.22,2.14,4.74,4.68,4.74,3.55,0,5.81-2.26,6.6-4.57.17-.51.28-1.07.28-1.58v-4.74Z"/>
      <path class="cls-1" d="m184.92,43.92c0-2.09,1.41-3.55,3.38-3.55s3.33,1.47,3.33,3.55-1.3,3.55-3.38,3.55c-1.97,0-3.33-1.52-3.33-3.55Z"/>
      <path class="cls-1" d="m197.78,28.46c0-3.5-.11-6.32-.23-8.91h4.46l.23,4.68h.11c2.03-3.33,5.25-5.3,9.7-5.3,6.6,0,11.56,5.58,11.56,13.88,0,9.82-5.98,14.67-12.41,14.67-3.61,0-6.77-1.58-8.41-4.29h-.11v14.84h-4.91v-29.56Zm4.91,7.28c0,.73.11,1.41.23,2.03.9,3.44,3.89,5.81,7.45,5.81,5.25,0,8.29-4.29,8.29-10.55,0-5.47-2.88-10.15-8.12-10.15-3.38,0-6.54,2.43-7.5,6.15-.17.62-.34,1.35-.34,2.03v4.68Z"/>
      <path class="cls-1" d="m229.87,6.8h4.96v17.04h.11c.79-1.41,2.03-2.65,3.55-3.5,1.47-.85,3.22-1.41,5.08-1.41,3.67,0,9.53,2.26,9.53,11.68v16.25h-4.96v-15.68c0-4.4-1.64-8.12-6.32-8.12-3.21,0-5.75,2.26-6.66,4.96-.28.68-.34,1.41-.34,2.37v16.47h-4.96V6.8Z"/>
      <path class="cls-3" d="m307.12,35.41c0,1.78-.33,3.31-.98,4.59s-1.53,2.38-2.62,3.28c-1.09.9-2.35,1.63-3.78,2.2-1.42.57-2.91,1.01-4.45,1.33-1.54.32-3.09.54-4.64.64-1.55.11-3,.16-4.35.16s-2.71-.05-4.13-.14c-1.42-.1-2.84-.26-4.26-.5-1.41-.24-2.81-.55-4.18-.95s-2.67-.89-3.89-1.49l-.06-41.39c1.2-.49,2.47-.94,3.82-1.33,1.35-.4,2.73-.73,4.13-1,1.4-.27,2.8-.47,4.19-.61,1.39-.14,2.74-.21,4.05-.21,1.52,0,3.06.1,4.61.29,1.55.19,3.05.51,4.48.96,1.44.45,2.77,1.03,4.02,1.75s2.33,1.6,3.26,2.65c.93,1.05,1.66,2.27,2.19,3.66.52,1.39.79,3,.79,4.82,0,1.2-.17,2.33-.51,3.37-.34,1.05-.83,1.99-1.48,2.83-.64.84-1.42,1.55-2.35,2.14-.92.59-1.96,1.02-3.12,1.3,1.39.36,2.66.9,3.81,1.61s2.12,1.56,2.92,2.57c.8,1.01,1.42,2.14,1.86,3.41.44,1.26.66,2.61.66,4.05Zm-20.89-7.84c-.62,0-1.22.06-1.8.19l-.13,7.33c.32.06.64.12.95.18.31.05.62.08.92.08.45,0,.94-.05,1.48-.14.54-.1,1.04-.29,1.51-.58.47-.29.86-.68,1.17-1.17.31-.49.47-1.15.47-1.96s-.16-1.48-.47-1.99c-.31-.51-.69-.92-1.14-1.21-.45-.29-.94-.48-1.48-.58-.54-.1-1.03-.14-1.48-.14Zm4.56-10.48c0-.62-.13-1.15-.39-1.59-.26-.44-.57-.8-.95-1.08s-.78-.48-1.22-.61c-.44-.13-.83-.19-1.17-.19-.43,0-.85.06-1.25.19-.41.13-.8.28-1.19.45l-.19,7.13c.49,0,1.1-.04,1.83-.13.73-.08,1.43-.27,2.11-.56.67-.29,1.25-.72,1.72-1.29.47-.57.71-1.34.71-2.33Z"/>
      <path class="cls-1" d="m334.15,39.41c0,2.82.06,5.3.23,7.45h-4.4l-.28-4.46h-.11c-1.3,2.2-4.17,5.08-9.03,5.08-4.29,0-9.42-2.37-9.42-11.96v-15.96h4.96v15.12c0,5.19,1.58,8.69,6.09,8.69,3.33,0,5.64-2.31,6.54-4.51.28-.73.45-1.64.45-2.54v-16.75h4.96v19.86Z"/>
      <path class="cls-1" d="m365.97,6.8v33c0,2.43.06,5.19.23,7.05h-4.46l-.23-4.74h-.11c-1.52,3.05-4.85,5.36-9.31,5.36-6.6,0-11.68-5.58-11.68-13.88-.06-9.08,5.58-14.67,12.24-14.67,4.17,0,7,1.97,8.24,4.17h.11V6.8h4.96Zm-4.96,23.86c0-.62-.06-1.47-.23-2.09-.73-3.16-3.44-5.75-7.16-5.75-5.13,0-8.18,4.51-8.18,10.55,0,5.53,2.71,10.1,8.07,10.1,3.33,0,6.37-2.2,7.28-5.92.17-.68.23-1.35.23-2.14v-4.74Z"/>
      <path class="cls-1" d="m397.78,6.8v33c0,2.43.06,5.19.23,7.05h-4.46l-.23-4.74h-.11c-1.52,3.05-4.85,5.36-9.31,5.36-6.6,0-11.68-5.58-11.68-13.88-.06-9.08,5.58-14.67,12.24-14.67,4.17,0,7,1.97,8.24,4.17h.11V6.8h4.96Zm-4.96,23.86c0-.62-.06-1.47-.23-2.09-.73-3.16-3.44-5.75-7.16-5.75-5.13,0-8.18,4.51-8.18,10.55,0,5.53,2.71,10.1,8.07,10.1,3.33,0,6.37-2.2,7.28-5.92.17-.68.23-1.35.23-2.14v-4.74Z"/>
      <path class="cls-1" d="m407.82,19.55l5.98,16.13c.62,1.81,1.3,3.95,1.75,5.58h.11c.51-1.64,1.07-3.72,1.75-5.7l5.42-16.02h5.25l-7.45,19.46c-3.55,9.36-5.98,14.16-9.36,17.09-2.43,2.14-4.85,2.99-6.09,3.22l-1.24-4.17c1.24-.39,2.88-1.18,4.34-2.43,1.35-1.07,3.05-2.99,4.17-5.53.23-.51.4-.9.4-1.18s-.11-.68-.34-1.3l-10.1-25.16h5.42Z"/>
    </g>
  </g>
</svg>