<?xml version="1.0" encoding="UTF-8"?>
<svg id="Ebene_2" data-name="Ebene 2" xmlns="http://www.w3.org/2000/svg" viewBox="0 0 104.43 83.98">
  <defs>
    <style>
      .cls-1 {
        fill: #222221;
      }

      .cls-1, .cls-2, .cls-3 {
        stroke-width: 0px;
      }

      .cls-2 {
        fill: #ff4653;
      }

      .cls-3 {
        fill: #00c3ad;
      }
    </style>
  </defs>
  <g id="OBJECTS">
    <g>
      <path class="cls-1" d="m83.18,83.98H21.25c-11.72,0-21.25-10.01-21.25-22.3V22.3C0,10.01,9.53,0,21.25,0h61.93c11.72,0,21.25,10.01,21.25,22.3v39.38c0,12.3-9.53,22.3-21.25,22.3ZM21.25,7c-7.86,0-14.25,6.87-14.25,15.3v39.38c0,8.44,6.39,15.3,14.25,15.3h61.93c7.86,0,14.25-6.87,14.25-15.3V22.3c0-8.44-6.39-15.3-14.25-15.3H21.25Z"/>
      <path class="cls-3" d="m90.4,58.46c0,1.61-.29,2.99-.89,4.16-.59,1.16-1.38,2.15-2.37,2.96-.99.81-2.13,1.48-3.42,1.99-1.29.51-2.63.92-4.02,1.21-1.39.29-2.79.48-4.2.58-1.4.1-2.72.14-3.94.14s-2.45-.04-3.73-.13c-1.29-.09-2.57-.24-3.85-.45s-2.54-.5-3.78-.86c-1.24-.36-2.41-.81-3.52-1.35l-.06-37.43c1.08-.45,2.24-.85,3.46-1.21s2.46-.66,3.73-.9c1.27-.24,2.53-.43,3.79-.55,1.26-.13,2.48-.19,3.66-.19,1.38,0,2.76.09,4.17.26,1.4.17,2.76.46,4.05.87,1.3.41,2.51.93,3.63,1.58,1.12.65,2.11,1.45,2.95,2.4.84.95,1.5,2.05,1.98,3.31.47,1.26.71,2.71.71,4.36,0,1.08-.16,2.1-.46,3.05-.31.95-.76,1.8-1.34,2.56-.58.75-1.29,1.4-2.12,1.93-.83.53-1.77.92-2.82,1.18,1.26.33,2.41.81,3.44,1.45,1.04.64,1.92,1.42,2.64,2.33.73.91,1.29,1.94,1.69,3.08.4,1.14.6,2.36.6,3.66Zm-18.89-7.09c-.56,0-1.1.06-1.63.17l-.12,6.63c.29.06.58.11.86.16.28.05.56.07.83.07.41,0,.85-.04,1.34-.13s.94-.26,1.37-.52c.43-.26.78-.61,1.06-1.06.28-.45.42-1.04.42-1.77s-.14-1.34-.42-1.8c-.28-.46-.62-.83-1.03-1.09-.41-.26-.85-.44-1.34-.52-.48-.09-.93-.13-1.34-.13Zm4.13-9.47c0-.56-.12-1.04-.35-1.44-.23-.4-.52-.72-.86-.97s-.71-.44-1.1-.55c-.4-.12-.75-.17-1.06-.17-.39,0-.77.06-1.13.17s-.73.25-1.08.41l-.17,6.45c.45,0,1-.04,1.66-.12.66-.08,1.29-.25,1.9-.51s1.13-.65,1.55-1.16c.43-.51.64-1.22.64-2.11Z"/>
      <path class="cls-2" d="m47.93,15.89l-.29,12.32-8.66.35-1.05,26.97-12.26.64-1.1-26.97-8.66.46.35-13.72,31.67-.06Z"/>
    </g>
  </g>
</svg>